<svg width="24" height="24" viewBox="0 0 24 24" fill="none" xmlns="http://www.w3.org/2000/svg">
<g clip-path="url(#clip0_2918_2886)">
<path d="M12 24C18.6274 24 24 18.6274 24 12C24 5.37258 18.6274 0 12 0C5.37258 0 0 5.37258 0 12C0 18.6274 5.37258 24 12 24Z" fill="#8247E5"/>
<path fill-rule="evenodd" clip-rule="evenodd" d="M8.01148 5.30069C8.25312 5.16645 8.54688 5.16645 8.78852 5.30069L12.3885 7.30069C12.6425 7.44177 12.8 7.70949 12.8 8.00001V9.30069L11.2 10.2V8.47073L8.4 6.91517L5.6 8.47073V11.5293L8.4 13.0849L15.2115 9.30069C15.4531 9.16645 15.7469 9.16645 15.9885 9.30069L19.5885 11.3007C19.8425 11.4418 20 11.7095 20 12V16C20 16.2905 19.8425 16.5583 19.5885 16.6993L15.9885 18.6993C15.7469 18.8336 15.4531 18.8336 15.2115 18.6993L11.6115 16.6993C11.3575 16.5583 11.2 16.2905 11.2 16V14.6993L12.8 13.8V15.5293L15.6 17.0849L18.4 15.5293V12.4707L15.6 10.9152L8.78852 14.6993C8.54688 14.8336 8.25312 14.8336 8.01148 14.6993L4.41148 12.6993C4.15752 12.5583 4 12.2905 4 12V8.00001C4 7.70949 4.15752 7.44177 4.41148 7.30069L8.01148 5.30069Z" fill="white"/>
</g>
<defs>
<clipPath id="clip0_2918_2886">
<rect width="24" height="24" fill="white"/>
</clipPath>
</defs>
</svg>
