<svg width="192" height="192" viewBox="0 0 192 192" fill="none" xmlns="http://www.w3.org/2000/svg">
<g clip-path="url(#clip0_1574_2087)">
<path opacity="0.6" d="M99.9217 175.762C141.453 175.762 175.122 142.093 175.122 100.562C175.122 59.0299 141.453 25.3617 99.9217 25.3617C58.3899 25.3617 24.7217 59.0299 24.7217 100.562C24.7217 142.093 58.3899 175.762 99.9217 175.762Z" fill="#396AFF" fill-opacity="0.2"/>
<path d="M54.5878 129.682L86.1868 42.9126L152.822 113.369L75.4286 148.897C63.0311 154.588 49.9198 142.5 54.5878 129.682Z" fill="#396AFF"/>
<ellipse cx="120.251" cy="77.7065" rx="11.1211" ry="48.7449" transform="rotate(-43.1847 120.251 77.7065)" fill="black"/>
<mask id="mask0_1574_2087" style="mask-type:alpha" maskUnits="userSpaceOnUse" x="53" y="42" width="100" height="109">
<path d="M54.5878 129.682L86.1868 42.9126L152.822 113.369L75.4286 148.897C63.0311 154.588 49.9198 142.5 54.5878 129.682Z" fill="#0D8D6D"/>
</mask>
<g mask="url(#mask0_1574_2087)">
<path fill-rule="evenodd" clip-rule="evenodd" d="M84.7054 100.609C71.3548 83.1254 64.5999 62.2814 62.4211 48.2874L73.1716 46.6136C75.1328 59.2101 81.3228 78.2519 93.3526 94.0062C105.269 109.612 122.704 121.782 147.568 121.782V132.662C118.55 132.662 98.1691 118.241 84.7054 100.609Z" fill="black"/>
<path fill-rule="evenodd" clip-rule="evenodd" d="M86.1385 97.2656C72.7879 79.7817 66.033 58.9378 63.8542 44.9437L74.6047 43.27C76.5659 55.8665 82.7559 74.9083 94.7857 90.6626C106.702 106.269 124.137 118.438 149.001 118.438V129.318C119.984 129.318 99.6022 114.898 86.1385 97.2656Z" fill="white"/>
<path fill-rule="evenodd" clip-rule="evenodd" d="M68.9422 122.582C55.5916 105.098 48.8367 84.2544 46.658 70.2604L57.4084 68.5866C59.3696 81.1831 65.5596 100.225 77.5894 115.979C89.5061 131.585 106.941 143.755 131.805 143.755V154.635C102.787 154.635 82.4059 140.214 68.9422 122.582Z" fill="white"/>
</g>
<circle cx="115.602" cy="136.722" r="19.2" fill="#19B000"/>
<path fill-rule="evenodd" clip-rule="evenodd" d="M123.372 130.896C124.115 131.652 124.105 132.868 123.348 133.611L114.233 142.571C113.486 143.305 112.288 143.305 111.541 142.571L107.857 138.949C107.1 138.205 107.09 136.99 107.833 136.234C108.577 135.477 109.792 135.467 110.548 136.21L112.887 138.509L120.657 130.872C121.413 130.129 122.628 130.139 123.372 130.896Z" fill="white"/>
<path fill-rule="evenodd" clip-rule="evenodd" d="M153.444 45.1711C154.79 41.7538 155.189 38.3427 155.774 34.7719C155.888 34.0745 155.414 33.4186 154.717 33.3036C154.019 33.1887 153.361 33.6628 153.246 34.3601C152.692 37.7461 152.338 40.9915 151.061 44.2377C150.802 44.8943 151.127 45.6375 151.785 45.8932C152.442 46.153 153.186 45.8277 153.444 45.1711Z" fill="black"/>
<path fill-rule="evenodd" clip-rule="evenodd" d="M159.933 53.0127C166.57 48.4155 173.071 42.229 177.904 35.7501C178.326 35.1841 178.208 34.3826 177.641 33.9631C177.074 33.5436 176.271 33.6593 175.85 34.2253C171.176 40.4895 164.888 46.4729 158.471 50.9149C157.891 51.318 157.748 52.1145 158.151 52.6923C158.555 53.2702 159.353 53.4158 159.933 53.0127Z" fill="black"/>
<path fill-rule="evenodd" clip-rule="evenodd" d="M160.642 59.101C165.932 60.7158 171.711 59.9448 176.917 58.4574C177.597 58.2608 177.989 57.5536 177.794 56.8792C177.599 56.2005 176.889 55.809 176.21 56.0014C171.468 57.3579 166.208 58.1297 161.39 56.6597C160.714 56.4532 159.998 56.8337 159.792 57.5059C159.585 58.178 159.967 58.8945 160.642 59.101Z" fill="black"/>
<circle cx="161.041" cy="68.2417" r="3.84" fill="black"/>
<circle cx="129.041" cy="28.5616" r="3.84" fill="#FFDA45"/>
<path d="M136.429 45.4965C136.097 44.1243 134.146 44.1243 133.814 45.4965L133.385 47.2739C133.267 47.7642 132.884 48.1471 132.394 48.2655L130.616 48.6945C129.244 49.0258 129.244 50.9775 130.616 51.3088L132.394 51.7378C132.884 51.8562 133.267 52.239 133.385 52.7294L133.814 54.5068C134.146 55.879 136.097 55.879 136.429 54.5068L136.858 52.7294C136.976 52.239 137.359 51.8562 137.849 51.7378L139.627 51.3088C140.999 50.9775 140.999 49.0258 139.627 48.6945L137.849 48.2655C137.359 48.1471 136.976 47.7642 136.858 47.2739L136.429 45.4965Z" fill="#396AFF"/>
<path fill-rule="evenodd" clip-rule="evenodd" d="M120.059 15.9604C120.447 16.9473 119.962 18.0618 118.975 18.4499C116.158 19.5575 112.548 23.1254 110.138 27.5662C108.303 30.9465 107.412 34.3603 107.786 37.1541C108.914 35.5452 110.263 34.2255 111.828 33.3778C114.634 31.8581 117.835 32.0194 120.934 34.1312C123.641 35.9765 124.746 38.6021 124.453 41.2183C124.174 43.7197 122.648 45.9809 120.578 47.4015C118.477 48.8433 115.687 49.5082 112.809 48.627C111.178 48.1274 109.613 47.1615 108.182 45.6947C106.816 51.012 106.865 57.6725 109.123 63.5633C109.502 64.5534 109.007 65.6637 108.017 66.0432C107.027 66.4226 105.916 65.9276 105.537 64.9374C102.56 57.1686 102.946 48.2959 105.374 41.8338C105.305 41.7092 105.237 41.5829 105.169 41.4549C102.615 36.6328 104.144 30.56 106.763 25.7345C109.402 20.8718 113.587 16.4422 117.57 14.8763C118.556 14.4882 119.671 14.9736 120.059 15.9604ZM109.686 41.5037C111.136 43.5636 112.64 44.5592 113.934 44.9553C115.562 45.454 117.15 45.0963 118.405 44.2353C119.691 43.3531 120.498 42.0313 120.637 40.7917C120.763 39.6669 120.37 38.3937 118.771 37.3045C116.745 35.9239 115.082 35.9826 113.657 36.7542C112.237 37.5237 110.83 39.1338 109.686 41.5037Z" fill="#FF8F6B"/>
<path fill-rule="evenodd" clip-rule="evenodd" d="M182.039 91.0522C161.914 83.572 146.512 92.8734 141.532 98.1342C140.317 99.4177 138.291 99.4732 137.008 98.2582C135.724 97.0432 135.669 95.0178 136.884 93.7344C143.209 87.0534 161.212 76.4836 184.269 85.0532C185.925 85.6689 186.769 87.511 186.153 89.1676C185.538 90.8242 183.696 91.6679 182.039 91.0522Z" fill="#FFDA45"/>
<path fill-rule="evenodd" clip-rule="evenodd" d="M161.565 97.7769C162.014 97.6124 162.487 97.3939 162.851 97.0774C163.284 96.7016 163.46 96.2176 163.578 95.7081C163.73 95.0535 163.791 94.3562 163.975 93.7005C164.043 93.457 164.174 93.365 164.23 93.3241C164.373 93.221 164.516 93.1934 164.652 93.2037C164.812 93.2157 165.032 93.278 165.177 93.5541C165.198 93.5936 165.224 93.6538 165.242 93.7363C165.256 93.7968 165.264 93.9859 165.278 94.0639C165.313 94.2559 165.342 94.4479 165.369 94.641C165.461 95.2837 165.513 95.8295 165.801 96.4199C166.191 97.2215 166.583 97.7119 167.113 97.9291C167.626 98.1392 168.24 98.0997 169.024 97.9349C169.098 97.9164 169.172 97.9005 169.245 97.8875C169.591 97.8254 169.921 98.0585 169.989 98.4124C170.057 98.7659 169.837 99.1104 169.495 99.1882C169.423 99.2043 169.353 99.2197 169.283 99.2338C168.224 99.5033 166.998 100.465 166.285 101.307C166.065 101.567 165.744 102.293 165.416 102.756C165.174 103.097 164.902 103.323 164.673 103.402C164.52 103.456 164.391 103.448 164.284 103.42C164.13 103.381 164.001 103.295 163.902 103.158C163.849 103.083 163.799 102.982 163.775 102.854C163.764 102.792 163.762 102.635 163.763 102.564C163.696 102.328 163.614 102.097 163.554 101.859C163.412 101.29 163.133 100.929 162.802 100.454C162.492 100.008 162.159 99.7284 161.671 99.5051C161.607 99.4892 161.095 99.3603 160.914 99.2863C160.65 99.1778 160.524 98.9961 160.478 98.8983C160.4 98.7322 160.392 98.5871 160.408 98.4662C160.431 98.2877 160.509 98.1349 160.647 98.0116C160.733 97.9349 160.861 97.8604 161.032 97.8241C161.165 97.7957 161.516 97.7793 161.565 97.7769ZM164.571 96.8496C164.595 96.904 164.62 96.9586 164.647 97.0138C165.219 98.1877 165.858 98.8431 166.636 99.1611L166.662 99.1715C166.142 99.5682 165.671 100.012 165.311 100.437C165.163 100.612 164.967 100.976 164.755 101.348C164.562 100.705 164.247 100.251 163.852 99.6818C163.549 99.2476 163.232 98.9208 162.843 98.6545C163.145 98.4951 163.433 98.3084 163.684 98.0904C164.102 97.7273 164.379 97.3066 164.571 96.8496Z" fill="#FF8F6B"/>
<path d="M45.5381 107.858C45.49 108.262 45.1226 108.549 44.7187 108.498C44.3177 108.447 44.0291 108.077 44.0801 107.673L45.5381 107.858ZM45.5381 107.858L45.8559 107.895C45.7868 108.476 45.2587 108.888 44.6787 108.815L44.6783 108.815C44.1026 108.742 43.6897 108.213 43.7626 107.633C44.2383 103.78 45.8851 100.555 48.7743 97.9546C49.2077 97.5643 49.8765 97.602 50.2635 98.0386C50.6526 98.4739 50.6155 99.1427 50.1832 99.5319L50.1831 99.532C47.6841 101.78 46.2677 104.559 45.8557 107.897L45.5381 107.858Z" fill="black" stroke="black" stroke-width="0.64"/>
<path d="M11.6623 114.536L11.6625 114.536C12.5725 114.83 13.2832 114.686 13.8076 114.309C14.3077 113.95 14.6222 113.366 14.7606 112.68L14.7606 112.68C14.8924 112.026 14.8627 111.251 14.7566 110.529C14.6611 109.881 14.5007 109.254 14.323 108.767C14.7877 108.116 15.3094 107.506 15.8798 106.944C20.3812 102.502 28.1225 102.587 34.8718 107.177C36.0004 107.945 36.9822 109.283 37.8398 110.998C38.6949 112.709 39.4116 114.765 40.0255 116.933C41.6889 122.805 42.4935 129.44 42.8735 132.574C42.9305 133.044 42.978 133.435 43.0173 133.733L43.0174 133.734C43.0566 134.025 43.104 134.259 43.1483 134.431C43.1703 134.516 43.1921 134.589 43.2123 134.647C43.2291 134.695 43.2528 134.757 43.2841 134.807C43.5506 135.234 43.9294 135.304 44.1622 135.311L44.1657 135.311C44.4931 135.317 44.7482 135.213 44.9437 135.067L44.9452 135.066C45.2113 134.866 45.3981 134.559 45.4392 134.154L45.4394 134.152C45.4602 133.931 45.427 133.659 45.38 133.404L45.3794 133.401C45.3694 133.35 45.3575 133.301 45.3468 133.256C45.3354 133.21 45.3258 133.172 45.3174 133.134C45.3092 133.097 45.3039 133.069 45.3012 133.046C45.2984 133.022 45.2993 133.013 45.2992 133.014C45.3841 132.299 45.5061 131.592 45.6301 130.873C45.6482 130.768 45.6663 130.663 45.6844 130.558L45.6845 130.557C46.1488 127.811 46.8992 125.182 47.7805 122.527L47.4768 122.426C47.7139 121.711 47.9496 120.993 48.1859 120.274C50.7463 112.476 53.3695 104.488 58.5932 98.0602C58.849 97.7452 58.8038 97.2789 58.4885 97.0208L58.6926 96.7743C58.6924 96.7741 58.6922 96.7739 58.692 96.7737C58.2414 96.4013 57.5769 96.4701 57.2072 96.9214L57.2065 96.9223C51.7941 103.581 49.0731 111.851 46.4401 119.853C46.2197 120.522 45.9999 121.19 45.7793 121.855L45.7793 121.855C45.2089 123.575 44.6892 125.291 44.2618 127.039C43.7079 123.371 42.8666 118.833 41.597 114.828C40.9402 112.755 40.158 110.819 39.2424 109.198C38.3285 107.579 37.2704 106.253 36.0528 105.425L36.0527 105.425C28.4927 100.284 19.6325 100.268 14.4005 105.433L14.4005 105.433C13.9424 105.885 13.509 106.366 13.1068 106.87C9.08125 102.032 2.28283 100.969 -3.01489 104.515C-3.50154 104.84 -3.62836 105.497 -3.3083 105.982L-3.30831 105.982L-3.30714 105.984C-2.98289 106.468 -2.32973 106.603 -1.84266 106.277L-1.84228 106.277C2.70331 103.234 8.57306 104.294 11.8558 108.693C11.437 109.411 11.0763 110.167 10.7872 110.953C10.6461 111.335 10.4064 112.165 10.459 112.863C10.514 113.625 10.8846 114.285 11.6623 114.536Z" fill="black" stroke="black" stroke-width="0.64"/>
</g>
<defs>
<clipPath id="clip0_1574_2087">
<rect width="192" height="192" fill="white"/>
</clipPath>
</defs>
</svg>
