<svg
  width="21"
  height="21"
  viewBox="0 0 21 21"
  fill="none"
  xmlns="http://www.w3.org/2000/svg"
>
<path
    d="M13.2192 10.4838L20.0577 3.6452C20.8131 2.88981 20.8131 1.66513 20.0578 0.909771C19.3024 0.154417 18.0777 0.154385 17.3223 0.909771L10.4838 7.74837L3.64515 0.909771C2.88977 0.154385 1.66505 0.154385 0.909728 0.909771C0.154374 1.66513 0.154342 2.88984 0.909728 3.64523L7.74829 10.4838L0.909761 17.3224C0.154374 18.0778 0.154374 19.3025 0.909761 20.0578C1.66511 20.8132 2.8898 20.8132 3.64519 20.0578L10.4837 13.2193L17.3223 20.0579C18.0777 20.8132 19.3024 20.8132 20.0577 20.0579C20.8131 19.3025 20.8131 18.0778 20.0577 17.3224L13.2192 10.4838Z"
    fill="white"
  />
</svg>
