<svg width="17" height="17" viewBox="0 0 17 17" fill="none" xmlns="http://www.w3.org/2000/svg">
<path d="M8.5 16.5C7.42031 16.5 6.37188 16.2891 5.38594 15.8719C4.43281 15.4688 3.57813 14.8906 2.84375 14.1562C2.10938 13.4219 1.53125 12.5672 1.12813 11.6141C0.710938 10.6281 0.5 9.57969 0.5 8.5C0.5 8.18906 0.751563 7.9375 1.0625 7.9375C1.37344 7.9375 1.625 8.18906 1.625 8.5C1.625 9.42813 1.80625 10.3281 2.16563 11.1766C2.5125 11.9953 3.00781 12.7312 3.63906 13.3625C4.27031 13.9938 5.00625 14.4906 5.825 14.8359C6.67188 15.1938 7.57188 15.375 8.5 15.375C9.42813 15.375 10.3281 15.1938 11.1766 14.8344C11.9953 14.4875 12.7313 13.9922 13.3625 13.3609C13.9938 12.7297 14.4906 11.9938 14.8359 11.175C15.1938 10.3281 15.375 9.42813 15.375 8.5C15.375 7.57188 15.1938 6.67188 14.8344 5.82344C14.4887 5.00665 13.9884 4.26439 13.3609 3.6375C12.7347 3.00925 11.9923 2.5088 11.175 2.16406C10.3281 1.80625 9.42813 1.625 8.5 1.625C8.18906 1.625 7.9375 1.37344 7.9375 1.0625C7.9375 0.751563 8.18906 0.5 8.5 0.5C9.57969 0.5 10.6281 0.710938 11.6141 1.12813C12.5672 1.53125 13.4219 2.10938 14.1563 2.84375C14.8906 3.57812 15.4672 4.43438 15.8703 5.38594C16.2875 6.37188 16.4984 7.42031 16.4984 8.5C16.4984 9.57969 16.2875 10.6281 15.8703 11.6141C15.4688 12.5672 14.8906 13.4219 14.1563 14.1562C13.4219 14.8906 12.5656 15.4672 11.6141 15.8703C10.6281 16.2891 9.57969 16.5 8.5 16.5Z" fill="white"/>
</svg>
