<svg width="288" height="140" viewBox="0 0 288 140" fill="none" xmlns="http://www.w3.org/2000/svg">
<path d="M0 52H114.719L97.0696 155H17.649L0 52Z" fill="url(#paint0_linear_2730_2321)"/>
<path d="M0 52H114.719L99.0752 32H16.0446L0 52Z" fill="url(#paint1_linear_2730_2321)"/>
<path d="M173.281 70H288L270.351 155H190.93L173.281 70Z" fill="url(#paint2_linear_2730_2321)"/>
<path d="M173.281 70H288L272.356 52H189.326L173.281 70Z" fill="url(#paint3_linear_2730_2321)"/>
<g filter="url(#filter0_d_2730_2321)">
<path d="M86.6406 20H201.359L191.733 155H97.8718L86.6406 20Z" fill="url(#paint4_linear_2730_2321)"/>
<path d="M86.6406 20H201.359L185.716 0H102.685L86.6406 20Z" fill="url(#paint5_linear_2730_2321)"/>
</g>
<defs>
<filter id="filter0_d_2730_2321" x="82.6406" y="0" width="122.719" height="163" filterUnits="userSpaceOnUse" color-interpolation-filters="sRGB">
<feFlood flood-opacity="0" result="BackgroundImageFix"/>
<feColorMatrix in="SourceAlpha" type="matrix" values="0 0 0 0 0 0 0 0 0 0 0 0 0 0 0 0 0 0 127 0" result="hardAlpha"/>
<feOffset dy="4"/>
<feGaussianBlur stdDeviation="2"/>
<feComposite in2="hardAlpha" operator="out"/>
<feColorMatrix type="matrix" values="0 0 0 0 0.631373 0 0 0 0 0.823529 0 0 0 0 0.996078 0 0 0 1 0"/>
<feBlend mode="normal" in2="BackgroundImageFix" result="effect1_dropShadow_2730_2321"/>
<feBlend mode="normal" in="SourceGraphic" in2="effect1_dropShadow_2730_2321" result="shape"/>
</filter>
<linearGradient id="paint0_linear_2730_2321" x1="57.3593" y1="52" x2="57.3593" y2="187" gradientUnits="userSpaceOnUse">
<stop stop-color="#D4EEFF"/>
<stop offset="0.416667" stop-color="#F9FEFF"/>
</linearGradient>
<linearGradient id="paint1_linear_2730_2321" x1="57.3593" y1="52" x2="57.3593" y2="32" gradientUnits="userSpaceOnUse">
<stop offset="0.0364583" stop-color="#B2DCFD"/>
<stop offset="1" stop-color="#96CBFE"/>
</linearGradient>
<linearGradient id="paint2_linear_2730_2321" x1="230.641" y1="70" x2="230.641" y2="181.408" gradientUnits="userSpaceOnUse">
<stop stop-color="#D4EEFF"/>
<stop offset="0.416667" stop-color="#F9FEFF"/>
</linearGradient>
<linearGradient id="paint3_linear_2730_2321" x1="230.641" y1="70" x2="230.641" y2="52" gradientUnits="userSpaceOnUse">
<stop offset="0.0364583" stop-color="#B2DCFD"/>
<stop offset="1" stop-color="#96CBFE"/>
</linearGradient>
<linearGradient id="paint4_linear_2730_2321" x1="144" y1="20" x2="144" y2="155" gradientUnits="userSpaceOnUse">
<stop stop-color="#D4EEFF"/>
<stop offset="0.416667" stop-color="#F9FEFF"/>
</linearGradient>
<linearGradient id="paint5_linear_2730_2321" x1="144" y1="20" x2="144" y2="0" gradientUnits="userSpaceOnUse">
<stop offset="0.0364583" stop-color="#B2DCFD"/>
<stop offset="1" stop-color="#96CBFE"/>
</linearGradient>
</defs>
</svg>
