<svg width="17" height="17" fill="none" xmlns="http://www.w3.org/2000/svg"><path d="M8.5 16.5a7.949 7.949 0 0 1-5.656-2.344A7.972 7.972 0 0 1 .5 8.5a.562.562 0 1 1 1.125 0 6.866 6.866 0 0 0 2.014 4.863A6.838 6.838 0 0 0 8.5 15.375a6.864 6.864 0 0 0 4.863-2.014A6.837 6.837 0 0 0 15.375 8.5c0-.928-.181-1.828-.54-2.677a6.88 6.88 0 0 0-3.66-3.659A6.835 6.835 0 0 0 8.5 1.625.562.562 0 1 1 8.5.5a7.95 7.95 0 0 1 5.656 2.344 7.987 7.987 0 0 1 1.714 2.542c.418.986.628 2.034.628 3.114a7.95 7.95 0 0 1-.628 3.114 7.942 7.942 0 0 1-1.714 2.542A7.986 7.986 0 0 1 8.5 16.5Z" fill="#fff"/></svg>