<svg width="288" height="140" fill="none" xmlns="http://www.w3.org/2000/svg"><path d="M0 52h114.719l-17.65 103H17.65L0 52Z" fill="url(#a)"/><path d="M0 52h114.719L99.075 32h-83.03L0 52Z" fill="url(#b)"/><path d="M173.281 70H288l-17.649 85H190.93l-17.649-85Z" fill="url(#c)"/><path d="M173.281 70H288l-15.644-18h-83.03l-16.045 18Z" fill="url(#d)"/><g filter="url(#e)"><path d="M86.64 20H201.36l-9.626 135H97.872L86.64 20Z" fill="url(#f)"/><path d="M86.64 20H201.36L185.716 0h-83.031L86.641 20Z" fill="url(#g)"/></g><defs><linearGradient id="a" x1="57.359" y1="52" x2="57.359" y2="187" gradientUnits="userSpaceOnUse"><stop stop-color="#D4EEFF"/><stop offset=".417" stop-color="#F9FEFF"/></linearGradient><linearGradient id="b" x1="57.359" y1="52" x2="57.359" y2="32" gradientUnits="userSpaceOnUse"><stop offset=".036" stop-color="#B2DCFD"/><stop offset="1" stop-color="#96CBFE"/></linearGradient><linearGradient id="c" x1="230.641" y1="70" x2="230.641" y2="181.408" gradientUnits="userSpaceOnUse"><stop stop-color="#D4EEFF"/><stop offset=".417" stop-color="#F9FEFF"/></linearGradient><linearGradient id="d" x1="230.641" y1="70" x2="230.641" y2="52" gradientUnits="userSpaceOnUse"><stop offset=".036" stop-color="#B2DCFD"/><stop offset="1" stop-color="#96CBFE"/></linearGradient><linearGradient id="f" x1="144" y1="20" x2="144" y2="155" gradientUnits="userSpaceOnUse"><stop stop-color="#D4EEFF"/><stop offset=".417" stop-color="#F9FEFF"/></linearGradient><linearGradient id="g" x1="144" y1="20" x2="144" y2="0" gradientUnits="userSpaceOnUse"><stop offset=".036" stop-color="#B2DCFD"/><stop offset="1" stop-color="#96CBFE"/></linearGradient><filter id="e" x="82.641" y="0" width="122.719" height="163" filterUnits="userSpaceOnUse" color-interpolation-filters="sRGB"><feFlood flood-opacity="0" result="BackgroundImageFix"/><feColorMatrix in="SourceAlpha" values="0 0 0 0 0 0 0 0 0 0 0 0 0 0 0 0 0 0 127 0" result="hardAlpha"/><feOffset dy="4"/><feGaussianBlur stdDeviation="2"/><feComposite in2="hardAlpha" operator="out"/><feColorMatrix values="0 0 0 0 0.631373 0 0 0 0 0.823529 0 0 0 0 0.996078 0 0 0 1 0"/><feBlend in2="BackgroundImageFix" result="effect1_dropShadow_2730_2321"/><feBlend in="SourceGraphic" in2="effect1_dropShadow_2730_2321" result="shape"/></filter></defs></svg>