<svg width="192" height="192" fill="none" xmlns="http://www.w3.org/2000/svg"><g clip-path="url(#a)"><path opacity=".6" d="M99.922 175.762c41.531 0 75.2-33.669 75.2-75.2 0-41.532-33.669-75.2-75.2-75.2-41.532 0-75.2 33.668-75.2 75.2 0 41.531 33.668 75.2 75.2 75.2Z" fill="#396AFF" fill-opacity=".2"/><path d="m54.588 129.682 31.599-86.77 66.635 70.457-77.393 35.528c-12.398 5.691-25.51-6.397-20.841-19.215Z" fill="#396AFF"/><ellipse cx="120.251" cy="77.707" rx="11.121" ry="48.745" transform="rotate(-43.185 120.251 77.707)" fill="#000"/><mask id="b" style="mask-type:alpha" maskUnits="userSpaceOnUse" x="53" y="42" width="100" height="109"><path d="m54.588 129.682 31.599-86.77 66.635 70.457-77.393 35.528c-12.398 5.691-25.51-6.397-20.841-19.215Z" fill="#0D8D6D"/></mask><g mask="url(#b)" fill-rule="evenodd" clip-rule="evenodd"><path d="M84.705 100.609C71.355 83.125 64.6 62.281 62.421 48.287l10.75-1.673c1.962 12.596 8.152 31.638 20.182 47.392 11.916 15.606 29.351 27.776 54.215 27.776v10.88c-29.018 0-49.399-14.421-62.863-32.053Z" fill="#000"/><path d="M86.138 97.266c-13.35-17.484-20.105-38.328-22.284-52.322l10.75-1.674c1.962 12.596 8.152 31.638 20.182 47.393 11.916 15.606 29.351 27.775 54.215 27.775v10.88c-29.017 0-49.399-14.42-62.863-32.052Z" fill="#fff"/><path d="M68.942 122.582c-13.35-17.484-20.105-38.328-22.284-52.322l10.75-1.673c1.962 12.596 8.152 31.638 20.181 47.392 11.917 15.606 29.352 27.776 54.216 27.776v10.88c-29.018 0-49.4-14.421-62.863-32.053Z" fill="#fff"/></g><circle cx="115.602" cy="136.722" r="19.2" fill="#19B000"/><path fill-rule="evenodd" clip-rule="evenodd" d="M123.372 130.896a1.92 1.92 0 0 1-.024 2.715l-9.115 8.96a1.92 1.92 0 0 1-2.692 0l-3.684-3.622a1.92 1.92 0 1 1 2.691-2.739l2.339 2.299 7.77-7.637a1.92 1.92 0 0 1 2.715.024Z" fill="#fff"/><path fill-rule="evenodd" clip-rule="evenodd" d="M153.444 45.171c1.346-3.417 1.745-6.828 2.33-10.4a1.28 1.28 0 0 0-2.528-.41c-.554 3.385-.908 6.63-2.185 9.877-.259.656.066 1.4.724 1.655a1.28 1.28 0 0 0 1.659-.722ZM159.933 53.013c6.637-4.597 13.138-10.784 17.971-17.263a1.275 1.275 0 0 0-.263-1.787 1.283 1.283 0 0 0-1.791.262c-4.674 6.264-10.962 12.248-17.379 16.69-.58.403-.723 1.2-.32 1.777a1.283 1.283 0 0 0 1.782.32ZM160.642 59.101c5.29 1.615 11.069.844 16.275-.644a1.277 1.277 0 1 0-.707-2.456c-4.742 1.357-10.002 2.129-14.82.659a1.28 1.28 0 0 0-1.598.846 1.279 1.279 0 0 0 .85 1.595Z" fill="#000"/><circle cx="161.041" cy="68.242" r="3.84" fill="#000"/><circle cx="129.041" cy="28.562" r="3.84" fill="#FFDA45"/><path d="M136.429 45.496c-.332-1.372-2.283-1.372-2.615 0l-.429 1.778c-.118.49-.501.873-.991.992l-1.778.428c-1.372.332-1.372 2.283 0 2.615l1.778.429c.49.118.873.501.991.991l.429 1.778c.332 1.372 2.283 1.372 2.615 0l.429-1.778c.118-.49.501-.873.991-.991l1.778-.43c1.372-.33 1.372-2.282 0-2.614l-1.778-.428a1.344 1.344 0 0 1-.991-.992l-.429-1.778Z" fill="#396AFF"/><path fill-rule="evenodd" clip-rule="evenodd" d="M120.059 15.96a1.92 1.92 0 0 1-1.084 2.49c-2.817 1.108-6.427 4.675-8.837 9.116-1.835 3.38-2.726 6.794-2.352 9.588 1.128-1.609 2.477-2.929 4.042-3.776 2.806-1.52 6.007-1.359 9.106.753 2.707 1.846 3.812 4.471 3.519 7.087-.279 2.502-1.805 4.763-3.875 6.183-2.101 1.442-4.891 2.107-7.769 1.226-1.631-.5-3.196-1.466-4.627-2.932-1.366 5.317-1.317 11.977.941 17.868a1.92 1.92 0 0 1-3.586 1.374c-2.977-7.768-2.591-16.641-.163-23.103a24.77 24.77 0 0 1-.205-.38c-2.554-4.821-1.025-10.894 1.594-15.72 2.639-4.862 6.824-9.292 10.807-10.858a1.92 1.92 0 0 1 2.489 1.084Zm-10.373 25.544c1.45 2.06 2.954 3.055 4.248 3.451 1.628.499 3.216.141 4.471-.72 1.286-.882 2.093-2.204 2.232-3.443.126-1.125-.267-2.398-1.866-3.488-2.026-1.38-3.689-1.321-5.114-.55-1.42.77-2.827 2.38-3.971 4.75Z" fill="#FF8F6B"/><path fill-rule="evenodd" clip-rule="evenodd" d="M182.039 91.052c-20.125-7.48-35.527 1.821-40.507 7.082a3.2 3.2 0 0 1-4.648-4.4c6.325-6.68 24.328-17.25 47.385-8.68a3.2 3.2 0 0 1-2.23 5.998Z" fill="#FFDA45"/><path fill-rule="evenodd" clip-rule="evenodd" d="M161.565 97.777c.449-.165.922-.383 1.286-.7.433-.375.609-.86.727-1.369.152-.654.213-1.352.397-2.007.068-.244.199-.336.255-.377a.617.617 0 0 1 .422-.12c.16.012.38.074.525.35.021.04.047.1.065.182.014.06.022.25.036.328.035.192.064.384.091.577.092.643.144 1.188.432 1.779.39.802.782 1.292 1.312 1.51.513.21 1.127.17 1.911.005.074-.019.148-.035.221-.047a.646.646 0 0 1 .744.524.663.663 0 0 1-.494.776c-.072.016-.142.032-.212.046-1.059.27-2.285 1.231-2.998 2.073-.22.26-.541.986-.869 1.449-.242.341-.514.567-.743.646a.643.643 0 0 1-.389.018.66.66 0 0 1-.382-.262.77.77 0 0 1-.127-.304 2.273 2.273 0 0 1-.012-.29c-.067-.236-.149-.467-.209-.705-.142-.569-.421-.93-.752-1.405a2.602 2.602 0 0 0-1.131-.949c-.064-.016-.576-.145-.757-.219a.818.818 0 0 1-.436-.388.755.755 0 0 1 .169-.886.837.837 0 0 1 .385-.188c.133-.028.484-.045.533-.047Zm3.006-.927c.024.054.049.109.076.164.572 1.174 1.211 1.83 1.989 2.147l.026.01c-.52.397-.991.841-1.351 1.266-.148.175-.344.539-.556.911-.193-.643-.508-1.097-.903-1.666a3.89 3.89 0 0 0-1.009-1.028c.302-.159.59-.346.841-.564.418-.363.695-.783.887-1.24Z" fill="#FF8F6B"/><path d="M45.538 107.858a.732.732 0 0 1-.82.64.74.74 0 0 1-.638-.825l1.458.185Zm0 0 .318.037c-.07.581-.597.993-1.177.92a1.06 1.06 0 0 1-.916-1.182c.475-3.853 2.122-7.078 5.011-9.678a1.05 1.05 0 0 1 1.49.084 1.06 1.06 0 0 1-.08 1.493c-2.5 2.248-3.916 5.027-4.328 8.365l-.318-.039Z" fill="#000" stroke="#000" stroke-width=".64"/><path d="M11.662 114.536c.91.294 1.621.15 2.146-.227.5-.359.814-.943.953-1.629.131-.654.102-1.429-.004-2.151a9.271 9.271 0 0 0-.434-1.762 13.89 13.89 0 0 1 1.557-1.823c4.501-4.442 12.242-4.357 18.992.233 1.128.768 2.11 2.106 2.968 3.821.855 1.711 1.572 3.767 2.185 5.935 1.664 5.872 2.468 12.507 2.849 15.641.056.47.104.861.143 1.159v.001c.04.291.087.525.131.697.022.085.044.158.064.216.017.048.04.11.072.16.267.427.645.497.878.504h.004a1.23 1.23 0 0 0 .778-.244l.001-.001c.266-.2.453-.507.494-.912v-.002c.021-.221-.012-.493-.059-.748v-.003c-.01-.051-.023-.1-.033-.145l-.03-.122a.915.915 0 0 1-.016-.088c-.003-.024-.002-.033-.002-.032.085-.715.207-1.422.331-2.141l.054-.315v-.001c.465-2.746 1.215-5.375 2.097-8.03l-.304-.101c.237-.715.473-1.433.709-2.152 2.56-7.798 5.184-15.786 10.407-22.214a.741.741 0 0 0-.105-1.04l.205-.246h-.001a1.052 1.052 0 0 0-1.485.147v.001c-5.413 6.659-8.134 14.929-10.767 22.931l-.66 2.002a67.05 67.05 0 0 0-1.518 5.184c-.554-3.668-1.395-8.206-2.665-12.211-.657-2.073-1.439-4.009-2.355-5.63-.913-1.619-1.972-2.945-3.19-3.773-7.56-5.141-16.42-5.157-21.651.008a16.34 16.34 0 0 0-1.294 1.437c-4.026-4.838-10.824-5.901-16.122-2.355a1.061 1.061 0 0 0-.293 1.467v.002c.325.484.978.619 1.465.293 4.546-3.043 10.416-1.983 13.699 2.416-.419.718-.78 1.474-1.069 2.26-.14.382-.38 1.212-.328 1.91.055.762.426 1.422 1.203 1.673Z" fill="#000" stroke="#000" stroke-width=".64"/></g><defs><clipPath id="a"><path fill="#fff" d="M0 0h192v192H0z"/></clipPath></defs></svg>