<svg width="13" height="20" viewBox="0 0 13 20" fill="none" xmlns="http://www.w3.org/2000/svg">
<path d="M6.12527 0V7.36194C6.12527 7.39319 6.09402 7.42444 6.06277 7.42444C5.84401 7.51998 5.6565 7.61463 5.43774 7.70927C5.15648 7.83517 4.84397 7.96196 4.5627 8.12001L3.53141 8.59324L2.68762 8.97272L1.65632 9.44685C1.37506 9.57364 1.0938 9.69954 0.781285 9.85758C0.562525 9.95223 0.312514 10.079 0.0937542 10.1737C0.0625028 10.1737 0.0625028 10.2049 0.0312514 10.1737H0C0.0937542 10.0156 0.187508 9.88884 0.281263 9.73169C0.781285 8.87808 1.31256 8.02536 1.81258 7.17175C2.34385 6.25653 2.90638 5.33952 3.43765 4.42341C3.93768 3.5707 4.4377 2.71798 4.93772 1.89651C5.31274 1.26345 5.68775 0.664315 6.03152 0.0312514C6.09402 0.0312514 6.09402 0 6.12527 0C6.09402 0 6.12527 0 6.12527 0V0Z" fill="#8C8C8C"/>
<path d="M12.188 10.1737C11.7192 10.4898 11.2192 10.7737 10.7505 11.0577C9.21913 11.9747 7.71907 12.8595 6.18775 13.7756C6.1565 13.7756 6.1565 13.8069 6.12525 13.8069C6.09399 13.8069 6.09399 13.7756 6.09399 13.7756V7.42447C6.09399 7.39322 6.12525 7.39322 6.1565 7.39322C6.2815 7.45572 6.40651 7.52001 6.56277 7.58251C6.93778 7.7727 7.34405 7.93074 7.71907 8.12004C8.06283 8.27808 8.37535 8.43612 8.71911 8.56202C9.06288 8.72006 9.37539 8.87811 9.71916 9.03615C10.0004 9.16294 10.3129 9.28884 10.5942 9.44688C10.8755 9.57367 11.188 9.69957 11.4692 9.85761C11.688 9.95226 11.9068 10.0791 12.1568 10.1737C12.1568 10.1424 12.1568 10.1737 12.188 10.1737V10.1737Z" fill="#141414"/>
<path d="M6.12527 20C6.12527 20 6.09402 20 6.12527 20C6.09402 20 6.09402 20 6.06277 19.9679C5.43774 19.0839 4.84397 18.2303 4.21894 17.3454L2.34385 14.6917C1.75008 13.839 1.12505 12.9863 0.531272 12.1006L0.0625014 11.4371C0.0625014 11.4059 0.03125 11.4059 0.03125 11.3746C0.0625014 11.3746 0.0625014 11.4059 0.0937528 11.4059C0.937541 11.9113 1.81258 12.4166 2.65637 12.922C3.62516 13.5229 4.62521 14.0917 5.594 14.6917C5.75026 14.7864 5.93776 14.881 6.09402 14.9757C6.12527 14.9757 6.12527 15.0078 6.12527 15.0391V20Z" fill="#8C8C8C"/>
<path d="M0 9.84298C0 9.81173 0 9.81173 0 9.84298C0.312514 9.68494 0.625028 9.55904 0.937542 9.401L2.15635 8.83222C2.46886 8.67418 2.78137 8.54828 3.09389 8.39024C3.53141 8.1688 4.00018 7.97951 4.4377 7.75807C4.75021 7.63128 5.06273 7.47324 5.37524 7.34734C5.594 7.25269 5.81276 7.15804 6.03152 7.03125C6.06277 7.03125 6.06277 7 6.09402 7V13.4449C6.06277 13.4771 6.06277 13.4449 6.03152 13.4449C5.93777 13.3824 5.84401 13.3503 5.78151 13.2869L0.0625028 9.87513C0.0312514 9.84298 0 9.84298 0 9.84298ZM12.0943 11.0127C12.0943 11.0439 12.0943 11.0439 12.063 11.0752C10.2505 13.6664 8.43788 16.2254 6.6253 18.8166C6.43779 19.1005 6.25028 19.3532 6.06277 19.6381V14.6137C6.46904 14.361 6.87531 14.1084 7.28158 13.8878L12.063 11.0439C12.063 11.0127 12.0943 11.0127 12.0943 11.0127V11.0127Z" fill="#3C3C3B"/>
<path d="M6.12524 7.39317V0.03302L12.1255 10.0799C12.1568 10.1111 12.188 10.1424 12.188 10.1745C12.063 10.112 11.938 10.0478 11.7817 9.98525C11.6255 9.92185 11.4692 9.82721 11.313 9.76381C11.2192 9.73256 11.1255 9.66917 11.0005 9.63702C10.8442 9.57452 10.6567 9.47898 10.5004 9.41648C10.4067 9.38433 10.3129 9.32183 10.2192 9.28968L9.5629 9.00574C9.43789 8.94235 9.34414 8.9111 9.21913 8.8477C9.06288 8.7843 8.90662 8.68966 8.75036 8.62626C8.65661 8.59501 8.56285 8.53162 8.4691 8.50036L7.81282 8.21553C7.68781 8.15303 7.59406 8.12088 7.46905 8.05749C7.3128 7.99498 7.15654 7.89944 7.00028 7.83605C6.90653 7.77355 6.78152 7.7414 6.68777 7.6789L6.12524 7.39406V7.39317Z" fill="#343434"/>
</svg>
